<svg width="16" height="16" viewBox="0 0 16 16" fill="none" xmlns="http://www.w3.org/2000/svg">
<path fill-rule="evenodd" clip-rule="evenodd" d="M11.354 1.64592C11.4005 1.69236 11.4375 1.74754 11.4627 1.80828C11.4879 1.86903 11.5009 1.93415 11.5009 1.99992C11.5009 2.06568 11.4879 2.13081 11.4627 2.19155C11.4375 2.2523 11.4005 2.30747 11.354 2.35392L5.70698 7.99992L11.354 13.6459C11.4479 13.7398 11.5006 13.8671 11.5006 13.9999C11.5006 14.1327 11.4479 14.26 11.354 14.3539C11.2601 14.4478 11.1328 14.5005 11 14.5005C10.8672 14.5005 10.7399 14.4478 10.646 14.3539L4.64598 8.35392C4.59941 8.30747 4.56247 8.2523 4.53727 8.19155C4.51206 8.13081 4.49908 8.06568 4.49908 7.99992C4.49908 7.93415 4.51206 7.86903 4.53727 7.80828C4.56247 7.74754 4.59941 7.69236 4.64598 7.64592L10.646 1.64592C10.6924 1.59935 10.7476 1.56241 10.8083 1.5372C10.8691 1.512 10.9342 1.49902 11 1.49902C11.0657 1.49902 11.1309 1.512 11.1916 1.5372C11.2524 1.56241 11.3075 1.59935 11.354 1.64592V1.64592Z" fill="white"/>
</svg>
