<svg width="16" height="16" viewBox="0 0 16 16" fill="none" xmlns="http://www.w3.org/2000/svg">
<path fill-rule="evenodd" clip-rule="evenodd" d="M4.64598 1.64592C4.69242 1.59935 4.7476 1.56241 4.80834 1.5372C4.86909 1.512 4.93421 1.49902 4.99998 1.49902C5.06575 1.49902 5.13087 1.512 5.19161 1.5372C5.25236 1.56241 5.30753 1.59935 5.35398 1.64592L11.354 7.64592C11.4005 7.69236 11.4375 7.74754 11.4627 7.80828C11.4879 7.86903 11.5009 7.93415 11.5009 7.99992C11.5009 8.06568 11.4879 8.13081 11.4627 8.19155C11.4375 8.2523 11.4005 8.30747 11.354 8.35392L5.35398 14.3539C5.26009 14.4478 5.13275 14.5005 4.99998 14.5005C4.8672 14.5005 4.73986 14.4478 4.64598 14.3539C4.55209 14.26 4.49935 14.1327 4.49935 13.9999C4.49935 13.8671 4.55209 13.7398 4.64598 13.6459L10.293 7.99992L4.64598 2.35392C4.59941 2.30747 4.56247 2.2523 4.53727 2.19155C4.51206 2.13081 4.49908 2.06568 4.49908 1.99992C4.49908 1.93415 4.51206 1.86903 4.53727 1.80828C4.56247 1.74754 4.59941 1.69236 4.64598 1.64592V1.64592Z" fill="white"/>
</svg>
